<?xml version="1.0" encoding="UTF-8" standalone="no"?>
<svg
   xmlns:dc="http://purl.org/dc/elements/1.1/"
   xmlns:cc="http://creativecommons.org/ns#"
   xmlns:rdf="http://www.w3.org/1999/02/22-rdf-syntax-ns#"
   xmlns:svg="http://www.w3.org/2000/svg"
   xmlns="http://www.w3.org/2000/svg"
   id="svg2697"
   version="1.1"
   viewBox="0 0 25.768961 25.76897"
   height="25.76897mm"
   width="25.768961mm">
  <defs
     id="defs2691" />
  <metadata
     id="metadata2694">
    <rdf:RDF>
      <cc:Work
         rdf:about="">
        <dc:format>image/svg+xml</dc:format>
        <dc:type
           rdf:resource="http://purl.org/dc/dcmitype/StillImage" />
        <dc:title></dc:title>
      </cc:Work>
    </rdf:RDF>
  </metadata>
  <g
     transform="translate(-939.61552,-293.18694)"
     id="layer1">
    <path
       d="m 948.76124,306.08174 h 1.07591 c 0,0.75116 0.25575,1.38282 0.76791,1.89498 0.51215,0.51215 1.14381,0.76791 1.89497,0.76791 0.75116,0 1.38282,-0.25576 1.89498,-0.76791 0.51215,-0.51216 0.76843,-1.14382 0.76843,-1.89498 h 1.07538 v 3.20084 c 0,0.16218 -0.051,0.29444 -0.15348,0.39687 -0.0939,0.0939 -0.22229,0.14108 -0.38447,0.14108 h -6.40168 c -0.16217,0 -0.29444,-0.0472 -0.39687,-0.14108 -0.0939,-0.10243 -0.14108,-0.23469 -0.14108,-0.39687 z m 3.73879,-1.60042 c 0.4524,0 0.83218,0.15366 1.13947,0.46096 0.30729,0.30729 0.46095,0.68707 0.46095,1.13946 0,0.45241 -0.15366,0.83218 -0.46095,1.13947 -0.30729,0.30729 -0.68707,0.46095 -1.13947,0.46095 -0.4524,0 -0.83217,-0.15366 -1.13946,-0.46095 -0.3073,-0.30729 -0.46096,-0.68706 -0.46096,-1.13947 0,-0.45239 0.15366,-0.83217 0.46096,-1.13946 0.30729,-0.3073 0.68706,-0.46096 1.13946,-0.46096 z m 2.66341,-1.70325 c 0.16218,0 0.30708,0.0686 0.43511,0.20515 0.13658,0.12804 0.20516,0.27294 0.20516,0.43512 0,0.16218 -0.0642,0.31145 -0.19224,0.44803 -0.1195,0.12804 -0.26878,0.19224 -0.44803,0.19224 -0.18779,0 -0.34145,-0.0598 -0.46096,-0.17932 -0.1195,-0.1195 -0.17932,-0.27316 -0.17932,-0.46095 0,-0.17925 0.0642,-0.32853 0.19224,-0.44804 0.13658,-0.12803 0.28586,-0.19223 0.44804,-0.19223 z m -5.86425,-1.4981 c -0.4524,0 -0.83217,0.15366 -1.13946,0.46095 -0.30729,0.30729 -0.46096,0.68758 -0.46096,1.13998 v 6.40168 c 0,0.4524 0.15367,0.83218 0.46096,1.13946 0.30729,0.3073 0.68706,0.46096 1.13946,0.46096 h 6.40168 c 0.45241,0 0.8327,-0.15366 1.13998,-0.46096 0.3073,-0.30728 0.46096,-0.68706 0.46096,-1.13946 v -6.40168 c 0,-0.4524 -0.15366,-0.83269 -0.46096,-1.13998 -0.30728,-0.30729 -0.68757,-0.46095 -1.13998,-0.46095 z m 16.08529,4.79146 A 12.884483,12.884484 0 0 1 952.5,318.95591 12.884483,12.884484 0 0 1 939.61552,306.07143 12.884483,12.884484 0 0 1 952.5,293.18694 a 12.884483,12.884484 0 0 1 12.88448,12.88449 z"
       style="font-style:normal;font-variant:normal;font-weight:normal;font-stretch:normal;font-size:medium;line-height:100%;font-family:Typicons;-inkscape-font-specification:Typicons;letter-spacing:0px;word-spacing:0px;fill:#f0ff00;fill-opacity:1;stroke:none;stroke-width:0.3200953px;stroke-linecap:butt;stroke-linejoin:miter;stroke-opacity:1"
       id="path833" />
  </g>
</svg>
