<?xml version="1.0" encoding="UTF-8" standalone="no"?>
<svg
   xmlns:dc="http://purl.org/dc/elements/1.1/"
   xmlns:cc="http://creativecommons.org/ns#"
   xmlns:rdf="http://www.w3.org/1999/02/22-rdf-syntax-ns#"
   xmlns:svg="http://www.w3.org/2000/svg"
   xmlns="http://www.w3.org/2000/svg"
   id="svg2105"
   version="1.1"
   viewBox="0 0 25.76897 25.76897"
   height="25.76897mm"
   width="25.76897mm">
  <defs
     id="defs2099" />
  <metadata
     id="metadata2102">
    <rdf:RDF>
      <cc:Work
         rdf:about="">
        <dc:format>image/svg+xml</dc:format>
        <dc:type
           rdf:resource="http://purl.org/dc/dcmitype/StillImage" />
        <dc:title></dc:title>
      </cc:Work>
    </rdf:RDF>
  </metadata>
  <g
     transform="translate(-300.0798,-280.33575)"
     id="layer1">
    <path
       d="m 314.28721,287.8345 c -1.46568,0 -2.47065,0.89497 -2.47065,2.53576 v 1.41387 h -1.65365 v 1.91978 h 1.65365 v 4.92217 h 1.98437 v -4.92217 h 1.64745 l 0.25269,-1.91978 h -1.90014 v -1.22577 c 0,-0.55125 0.14902,-0.93379 0.94671,-0.93379 h 1.01855 v -1.71204 c -0.17511,-0.0259 -0.77857,-0.078 -1.47898,-0.078 z m 11.56156,5.38574 a 12.884483,12.884484 0 0 1 -12.88448,12.88448 12.884483,12.884484 0 0 1 -12.88449,-12.88448 12.884483,12.884484 0 0 1 12.88449,-12.88449 12.884483,12.884484 0 0 1 12.88448,12.88449 z"
       style="font-style:normal;font-variant:normal;font-weight:normal;font-stretch:normal;font-size:medium;line-height:100%;font-family:Typicons;-inkscape-font-specification:Typicons;letter-spacing:0px;word-spacing:0px;fill:#f0ff00;fill-opacity:1;stroke:none;stroke-width:0.29054138px;stroke-linecap:butt;stroke-linejoin:miter;stroke-opacity:1"
       id="path831" />
  </g>
</svg>
