<?xml version="1.0" encoding="UTF-8" standalone="no"?>
<svg
   xmlns:dc="http://purl.org/dc/elements/1.1/"
   xmlns:cc="http://creativecommons.org/ns#"
   xmlns:rdf="http://www.w3.org/1999/02/22-rdf-syntax-ns#"
   xmlns:svg="http://www.w3.org/2000/svg"
   xmlns="http://www.w3.org/2000/svg"
   id="svg1513"
   version="1.1"
   viewBox="0 0 25.768999 25.76897"
   height="25.76897mm"
   width="25.768999mm">
  <defs
     id="defs1507" />
  <metadata
     id="metadata1510">
    <rdf:RDF>
      <cc:Work
         rdf:about="">
        <dc:format>image/svg+xml</dc:format>
        <dc:type
           rdf:resource="http://purl.org/dc/dcmitype/StillImage" />
        <dc:title></dc:title>
      </cc:Work>
    </rdf:RDF>
  </metadata>
  <g
     transform="translate(1128.6702,250.34282)"
     id="layer1">
    <path
       d="m -1115.5056,-243.2735 c -2.3945,0 -4.761,1.59654 -4.761,4.1801 0,0.9172 0.3641,2.25433 1.3653,2.5554 0.035,0.007 0.084,0.0212 0.1189,0.0212 0.231,0 0.3643,-0.64427 0.3643,-0.82631 0,-0.21704 -0.5529,-0.67913 -0.5529,-1.58233 0,-1.8764 1.4278,-3.20653 3.2762,-3.20653 1.5894,0 2.7658,0.90329 2.7658,2.56264 0,1.23927 -0.4971,3.56361 -2.1074,3.56361 -0.5811,0 -1.0785,-0.42004 -1.0785,-1.02216 0,-0.88219 0.6165,-1.73667 0.6165,-2.64687 0,-0.55312 -0.3152,-1.00097 -0.9033,-1.00097 -0.7982,0 -1.2883,0.89638 -1.2883,1.60352 0,0.39209 0.049,0.8258 0.2243,1.18287 -0.3221,1.38631 -0.9803,3.452 -0.9803,4.88031 0,0.4411 0.063,0.87509 0.1049,1.3162 l 0.063,0.0698 0.098,-0.0346 c 1.1763,-1.61034 1.134,-1.92537 1.6661,-4.03282 0.287,0.54612 1.0293,0.83974 1.6174,0.83974 2.4786,0 3.5916,-2.41553 3.5916,-4.593 0,-2.3175 -2.0024,-3.82974 -4.2008,-3.82974 z m 12.6044,5.81517 a 12.884483,12.884484 0 0 1 -12.8845,12.88448 12.884483,12.884484 0 0 1 -12.8845,-12.88448 12.884483,12.884484 0 0 1 12.8845,-12.88449 12.884483,12.884484 0 0 1 12.8845,12.88449 z"
       style="font-style:normal;font-variant:normal;font-weight:normal;font-stretch:normal;font-size:medium;line-height:100%;font-family:Typicons;-inkscape-font-specification:Typicons;letter-spacing:0px;word-spacing:0px;fill:#f0ff00;fill-opacity:1;stroke:none;stroke-width:0.31366763px;stroke-linecap:butt;stroke-linejoin:miter;stroke-opacity:1"
       id="path829" />
  </g>
</svg>
