<?xml version="1.0" encoding="UTF-8" standalone="no"?>
<svg
   xmlns:dc="http://purl.org/dc/elements/1.1/"
   xmlns:cc="http://creativecommons.org/ns#"
   xmlns:rdf="http://www.w3.org/1999/02/22-rdf-syntax-ns#"
   xmlns:svg="http://www.w3.org/2000/svg"
   xmlns="http://www.w3.org/2000/svg"
   id="svg928"
   version="1.1"
   viewBox="0 0 25.768967 25.768967"
   height="25.768967mm"
   width="25.768967mm">
  <defs
     id="defs922" />
  <metadata
     id="metadata925">
    <rdf:RDF>
      <cc:Work
         rdf:about="">
        <dc:format>image/svg+xml</dc:format>
        <dc:type
           rdf:resource="http://purl.org/dc/dcmitype/StillImage" />
        <dc:title></dc:title>
      </cc:Work>
    </rdf:RDF>
  </metadata>
  <g
     transform="translate(-5.6973287,-63.162552)"
     id="layer1">
    <path
       d="m 21.260718,72.045731 c -1.270009,0 -2.291332,1.028414 -2.291333,2.291331 0,0.177372 0.02085,0.354743 0.05633,0.525034 -1.901467,-0.0994 -3.597184,-1.00716 -4.725293,-2.397786 -0.198659,0.340569 -0.312125,0.730821 -0.312125,1.156517 0,0.79465 0.404377,1.496902 1.021643,1.908411 -0.37604,-0.0141 -0.730514,-0.120648 -1.035599,-0.290939 v 0.02843 c 0,1.113909 0.787551,2.036106 1.837614,2.248958 -0.191566,0.0497 -0.397309,0.07803 -0.603064,0.07803 -0.148995,0 -0.291149,-0.01384 -0.433049,-0.03514 0.290896,0.90817 1.135528,1.56776 2.143022,1.589048 -0.787547,0.617271 -1.773956,0.979271 -2.845304,0.979271 -0.191566,0 -0.368986,-0.008 -0.553455,-0.02842 1.014587,0.652738 2.220776,1.028878 3.519165,1.028878 4.214441,0 6.520533,-3.490963 6.520533,-6.520532 0,-0.0994 -1.7e-4,-0.198319 -0.0072,-0.297657 0.446986,-0.326371 0.837102,-0.730863 1.149284,-1.184942 -0.411511,0.177369 -0.85864,0.304822 -1.319816,0.3545 0.475367,-0.283808 0.83741,-0.73084 1.00769,-1.26297 -0.439925,0.262513 -0.93679,0.454127 -1.454725,0.553447 -0.418605,-0.44698 -1.01448,-0.723469 -1.674318,-0.723469 z m 10.205577,4.001304 A 12.884483,12.884484 0 0 1 18.581812,88.931519 12.884483,12.884484 0 0 1 5.6973287,76.047035 12.884483,12.884484 0 0 1 18.581812,63.162552 12.884483,12.884484 0 0 1 31.466295,76.047035 Z"
       style="opacity:1;vector-effect:none;fill:#f0ff00;fill-opacity:1;stroke:none;stroke-width:1.32291663;stroke-linecap:round;stroke-linejoin:bevel;stroke-miterlimit:4;stroke-dasharray:none;stroke-dashoffset:0;stroke-opacity:0.25;paint-order:normal"
       id="path827" />
  </g>
</svg>
